<svg width="120" height="131" viewBox="0 0 120 131" fill="none" xmlns="http://www.w3.org/2000/svg">
<path d="M59.689 41.1584L93.0991 0V32.2299V67.1457L84.0787 68.041V27.7536L59.689 56.4038V41.1584Z" fill="#D1CCB6"/>
<path d="M64.8206 110.783L64.1523 110.332L64.7463 110.407L65.4146 110.557L66.1571 110.708L67.6422 111.158L68.8302 111.609L70.0925 112.21L71.5776 112.961L73.0626 113.862L74.2506 114.763L75.6614 115.965L76.7752 117.167L77.9633 118.594L78.9286 120.171L79.8196 121.673L80.7849 123.701L81.5274 125.729L82.0472 127.607L82.2699 128.433L82.4927 129.935L64.1523 129.935L42.4296 129.935L42.4296 122.424L66.6026 122.575L68.8954 122.647L72.1716 122.575L72.0973 121.523L71.5776 119.27L71.132 118.068L70.4638 116.641L69.35 114.914L67.7164 113.036L65.9344 111.534L64.8206 110.783Z" fill="#D1CCB6"/>
<path d="M54.3563 111.011L55.2473 110.26L56.6581 109.208L57.9947 108.232L59.3312 107.405L60.6677 106.654L61.7073 106.053L63.2666 105.227L59.6282 105.002L53.9108 108.232L52.203 109.208L51.0149 109.959L49.8269 110.635L48.7874 111.236L47.5993 111.987L46.1885 112.888L44.7777 113.94L43.5897 114.841L42.1789 116.043L41.0651 117.245L39.8771 118.672L38.9118 120.249L38.0208 121.751L37.0555 123.779L36.3129 125.807L35.7932 127.685L35.5704 128.511L35.3477 130.013L53.688 130.013L75.4108 130.013L75.4108 122.502L51.2377 122.652L48.8616 122.652L47.7478 122.577L47.9706 121.3L48.3418 119.723L48.7874 118.521L49.4556 117.094L50.3467 115.667L51.6832 113.79L53.1682 112.212L54.3563 111.011Z" fill="#D1CCB6"/>
<path d="M16.8394 71.6827L18.6065 74.0073L19.2302 74.5608L19.5421 74.8929L19.75 75.1143L19.3342 74.8929L17.8789 74.2287L16.7355 73.4538L15.5921 72.5682L14.4486 71.572L13.6171 70.6864L12.4737 69.4687L11.5381 68.2511L10.4987 66.7013L9.87498 65.5944L9.0434 64.0446L8.31577 62.4949L7.79603 61.1665L7.17235 59.5061L6.65262 57.6242L6.13288 55.8531L5.71709 53.9712L5.3013 51.9787L4.98946 50.429L4.78157 48.4364L4.57367 46.776L4.36578 44.4514L4.15789 42.5695L3.84604 40.1342L3.5342 37.6989L3.11841 35.0422L2.80657 33.4924L2.49473 31.7213L2.07894 29.7287L1.55921 27.7362L1.03947 26.1864L0.519737 25.0795L2.69624e-07 24.1939L23.9078 24.1939L23.9078 28.7325L23.9078 33.1603L19.8539 33.1603L11.5381 33.1603L11.3302 36.924L11.3302 42.7909L11.5381 48.9899L12.0579 55.6317L13.3052 62.7163L14.9684 67.8083L16.8394 71.6827Z" fill="#D1CCB6"/>
<path d="M102.712 71.5269L100.945 73.8515L100.321 74.405L100.009 74.7371L99.8013 74.9585L100.217 74.7371L101.672 74.0729L102.816 73.2981L103.959 72.4125L105.103 71.4162L105.934 70.5306L107.078 69.313L108.013 68.0953L109.053 66.5456L109.676 65.4386L110.508 63.8889L111.235 62.3391L111.755 61.0107L112.379 59.3503L112.899 57.4685L113.418 55.6973L113.834 53.8155L114.25 51.8229L114.562 50.2732L114.77 48.2807L114.978 46.6202L115.185 44.2956L115.393 42.4138L115.705 39.9784L116.017 37.5431L116.433 34.8864L116.745 33.3366L117.057 31.5655L117.472 29.573L117.992 27.5804L118.512 26.0307L119.032 24.9237L119.551 24.0382L95.6434 24.0382L95.6434 28.5767L95.6434 33.0046L99.6974 33.0046L108.013 33.0046L108.221 36.7682L108.221 42.6351L108.013 48.8341L107.493 55.4759L106.246 62.5605L104.583 67.6525L102.712 71.5269Z" fill="#D1CCB6"/>
<path d="M59.689 41.155L26.4274 0V32.2299V67.1457L35.417 68.041V27.7536L59.689 56.4024V41.155Z" fill="#D1CCB6"/>
<path d="M35.4176 67.9746L26.4413 66.9961V73.3409L26.6551 76.1356L27.0645 78.5118L27.6877 80.7698L28.5878 83.2536L29.5571 85.5116L30.5958 87.3932L31.8421 89.4254L33.3654 91.3823L35.4426 93.6403L37.6583 95.522L39.5277 96.952L41.7434 98.3821L44.0755 99.6264L45.9671 100.414L47.4904 101.016L48.7367 101.317L50.0522 101.844L48.3905 100.188L45.5516 97.4789L43.9591 95.7478L42.6435 94.0919L41.2587 92.2855L40.1509 90.5544L38.9046 88.2964L38.0737 86.49L37.4505 84.9094L36.9658 83.6299L36.6196 82.5762L36.3427 81.5225L36.0657 80.6193L35.858 79.6408L35.581 78.286L35.4426 76.4044L35.4176 74.3722V73.0174V71.4368V67.9746Z" fill="#D1CCB6"/>
<path d="M84.038 68.0068L93.1138 66.6982V72.9524L92.899 75.7413L92.4874 78.1125L91.8611 80.3658L90.9564 82.8444L89.9821 85.0976L88.9382 86.9753L87.6855 89.0033L86.1544 90.9561L84.0666 93.2093L81.8396 95.087L79.891 96.439L77.4465 98.1665L73.8364 100.119L69.5757 102.222L65.8631 103.95L63.19 105.302L59.5001 107.33L57.6211 106.278L59.5001 105.076L71.8182 98.3918L73.8364 96.9647L75.5066 95.3123L76.8289 93.66L78.2208 91.8574L79.3343 90.1299L80.587 87.8766L81.4221 86.074L82.0484 84.4968L82.5356 83.2199L82.8835 82.1684L83.1619 81.1169L83.4403 80.2156L83.6491 79.2392L83.9274 77.8872L84.0666 76.0095L84.0917 73.9816V72.6296L84.0666 71.0524L84.038 68.0068Z" fill="#D1CCB6"/>
</svg>
