<svg width="45" height="45" viewBox="0 0 45 45" fill="none" xmlns="http://www.w3.org/2000/svg">
<path d="M22.5021 0C16.3914 0 15.6245 0.0267192 13.2245 0.135938C10.8292 0.245625 9.19416 0.624844 7.76352 1.18125C6.28366 1.75594 5.02833 2.52469 3.7777 3.77578C2.52612 5.02641 1.75736 6.28172 1.18079 7.76109C0.622975 9.19219 0.243284 10.8277 0.13547 13.222C0.0281251 15.622 0 16.3894 0 22.5C0 28.6106 0.0271882 29.3752 0.135939 31.7752C0.246097 34.1705 0.625319 35.8055 1.18126 37.2361C1.75642 38.7159 2.52518 39.9713 3.77629 41.2219C5.02646 42.4734 6.28178 43.2441 7.76071 43.8188C9.19228 44.3752 10.8278 44.7544 13.2226 44.8641C15.6227 44.9733 16.3891 45 22.4993 45C28.6105 45 29.375 44.9733 31.775 44.8641C34.1704 44.7544 35.8072 44.3752 37.2388 43.8188C38.7182 43.2441 39.9717 42.4734 41.2218 41.2219C42.4734 39.9713 43.2422 38.7159 43.8187 37.2366C44.3719 35.8055 44.7516 34.17 44.8641 31.7756C44.9719 29.3756 45 28.6106 45 22.5C45 16.3894 44.9719 15.6225 44.8641 13.2225C44.7516 10.8272 44.3719 9.19219 43.8187 7.76156C43.2422 6.28172 42.4734 5.02641 41.2218 3.77578C39.9703 2.52422 38.7187 1.75547 37.2374 1.18125C35.803 0.624844 34.1671 0.245625 31.7717 0.135938C29.3717 0.0267192 28.6076 0 22.4951 0H22.5021ZM20.4837 4.05469C21.0827 4.05375 21.7512 4.05469 22.5021 4.05469C28.5097 4.05469 29.2217 4.07625 31.5941 4.18406C33.7879 4.28438 34.9785 4.65094 35.7716 4.95891C36.8216 5.36672 37.5702 5.85422 38.3573 6.64172C39.1448 7.42922 39.6323 8.17922 40.041 9.22922C40.349 10.0214 40.716 11.212 40.8159 13.4058C40.9237 15.7777 40.9471 16.4902 40.9471 22.4948C40.9471 28.4995 40.9237 29.212 40.8159 31.5839C40.7156 33.7777 40.349 34.9683 40.041 35.7605C39.6332 36.8105 39.1448 37.5581 38.3573 38.3452C37.5698 39.1327 36.8221 39.6202 35.7716 40.028C34.9794 40.3373 33.7879 40.703 31.5941 40.8033C29.2222 40.9111 28.5097 40.9345 22.5021 40.9345C16.4941 40.9345 15.782 40.9111 13.4101 40.8033C11.2164 40.702 10.0257 40.3355 9.23213 40.0275C8.18212 39.6197 7.43211 39.1322 6.6446 38.3447C5.85709 37.5572 5.36959 36.8091 4.96083 35.7586C4.65286 34.9664 4.28583 33.7758 4.18598 31.582C4.07817 29.2102 4.0566 28.4977 4.0566 22.4892C4.0566 16.4808 4.07817 15.772 4.18598 13.4002C4.28629 11.2064 4.65286 10.0158 4.96083 9.22266C5.36865 8.17266 5.85709 7.42266 6.6446 6.63516C7.43211 5.84766 8.18212 5.36016 9.23213 4.95141C10.0253 4.64203 11.2164 4.27641 13.4101 4.17563C15.4858 4.08188 16.2902 4.05375 20.4837 4.04906V4.05469ZM34.5125 7.79062C33.0219 7.79062 31.8125 8.99859 31.8125 10.4897C31.8125 11.9803 33.0219 13.1897 34.5125 13.1897C36.0032 13.1897 37.2126 11.9803 37.2126 10.4897C37.2126 8.99906 36.0032 7.78969 34.5125 7.78969V7.79062ZM22.5021 10.9453C16.1209 10.9453 10.9473 16.1189 10.9473 22.5C10.9473 28.8811 16.1209 34.0523 22.5021 34.0523C28.8833 34.0523 34.055 28.8811 34.055 22.5C34.055 16.1189 28.8828 10.9453 22.5016 10.9453H22.5021ZM22.5021 15C26.644 15 30.0022 18.3577 30.0022 22.5C30.0022 26.6419 26.644 30 22.5021 30C18.3597 30 15.002 26.6419 15.002 22.5C15.002 18.3577 18.3597 15 22.5021 15Z" fill="#D1CCB6"/>
</svg>
