<svg width="47" height="47" viewBox="0 0 47 47" fill="none" xmlns="http://www.w3.org/2000/svg">
<path fill-rule="evenodd" clip-rule="evenodd" d="M43.5958 0H3.54291C1.6271 0 0 1.51519 0 3.38176V43.616C0 45.4848 1.06757 47 2.98338 47H43.0363C44.9544 47 47 45.4848 47 43.616V3.38176C47 1.51519 45.5139 0 43.5958 0ZM17.9048 17.9048H24.2319V21.1299H24.3012C25.2659 19.3909 28.115 17.625 31.6377 17.625C38.399 17.625 40.2857 21.2149 40.2857 27.8643V40.2857H33.5714V29.0885C33.5714 26.1119 32.383 23.5 29.6033 23.5C26.2282 23.5 24.619 25.7851 24.619 29.5361V40.2857H17.9048V17.9048ZM6.71429 40.2857H13.4286V17.9048H6.71429V40.2857ZM14.2679 10.0714C14.2679 12.3901 12.3901 14.2679 10.0714 14.2679C7.75276 14.2679 5.875 12.3901 5.875 10.0714C5.875 7.75276 7.75276 5.875 10.0714 5.875C12.3901 5.875 14.2679 7.75276 14.2679 10.0714Z" fill="#D1CCB6"/>
</svg>
