<svg width="321" height="414" viewBox="0 0 321 414" fill="none" xmlns="http://www.w3.org/2000/svg">
<path fill-rule="evenodd" clip-rule="evenodd" d="M246.041 38.0613C252.116 38.0613 257.041 33.1364 257.041 27.0613V9.97258C257.041 7.00876 260.207 0 263.171 0H275.991C300.844 0 320.991 20.1472 320.991 45V369C320.991 385.809 311.775 400.465 298.121 408.192C296.819 408.928 295.273 407.812 295.273 406.315V241.877C295.273 228.622 284.528 217.877 271.273 217.877L149.482 217.877C136.228 217.877 125.482 228.622 125.482 241.877L125.482 406.315C125.482 410.156 122.759 414 118.918 414H45C20.1472 414 0 393.853 0 369V239.832C0 235.012 3.90736 231.104 8.72734 231.104C13.5473 231.104 17.4547 235.012 17.4547 239.832L17.4547 293.376C17.4547 297.794 21.0364 301.376 25.4547 301.376H86.4653C90.8836 301.376 94.4653 297.794 94.4653 293.376L94.4653 218.248C94.4656 218.225 94.4658 218.203 94.4659 218.18C94.466 218.155 94.4661 218.13 94.4661 218.104L94.4661 174.623C94.4661 167.443 88.6458 161.623 81.4661 161.623H12.2779C5.49699 161.623 0 156.126 0 149.345V115.417C0 113.072 4.39757 111.09 6.74229 111.09H85.7461C90.1644 111.09 93.7461 107.508 93.7461 103.09V81.1912C93.7461 76.7729 90.1644 73.1912 85.7461 73.1912H6.7423C4.39758 73.1912 0 71.2095 0 68.8647V45C0 20.1472 20.1472 0 45 0H154.551C157.515 0 160.681 7.00877 160.681 9.9726V27.0613C160.681 33.1364 165.606 38.0613 171.681 38.0613L246.041 38.0613ZM118.218 81.5583C118.218 69.9603 127.62 60.5583 139.218 60.5583H170.63C182.228 60.5583 191.63 69.9603 191.63 81.5583V115.356C191.63 126.954 182.228 136.356 170.63 136.356H139.218C127.62 136.356 118.218 126.954 118.218 115.356V81.5583ZM243.578 60.5583C231.98 60.5583 222.578 69.9603 222.578 81.5583V115.356C222.578 126.954 231.98 136.356 243.578 136.356H275.71C287.308 136.356 296.71 126.954 296.71 115.356V81.5583C296.71 69.9603 287.308 60.5583 275.71 60.5583H243.578Z" fill="#270B5D"/>
</svg>
