<svg width="321" height="414" viewBox="0 0 321 414" fill="none" xmlns="http://www.w3.org/2000/svg">
<path fill-rule="evenodd" clip-rule="evenodd" d="M74.9506 38.0613C68.8755 38.0613 63.9506 33.1364 63.9506 27.0613V9.97258C63.9506 7.00876 60.7843 0 57.8205 0H45C20.1472 0 0 20.1472 0 45V369C0 385.809 9.21579 400.465 22.8702 408.192C24.1724 408.928 25.718 407.812 25.718 406.315V241.877C25.718 228.622 36.4632 217.877 49.718 217.877L171.509 217.877C184.764 217.877 195.509 228.622 195.509 241.877L195.509 406.315C195.509 410.156 198.232 414 202.073 414H275.991C300.844 414 320.991 393.853 320.991 369V239.832C320.991 235.012 317.084 231.104 312.264 231.104C307.444 231.104 303.537 235.012 303.537 239.832L303.537 293.376C303.537 297.794 299.955 301.376 295.537 301.376H234.526C230.108 301.376 226.526 297.794 226.526 293.376L226.526 218.248C226.526 218.225 226.525 218.203 226.525 218.18C226.525 218.155 226.525 218.13 226.525 218.104L226.525 174.623C226.525 167.443 232.345 161.623 239.525 161.623H308.713C315.494 161.623 320.991 156.126 320.991 149.345V115.417C320.991 113.072 316.594 111.09 314.249 111.09H235.245C230.827 111.09 227.245 107.508 227.245 103.09V81.1912C227.245 76.7729 230.827 73.1912 235.245 73.1912H314.249C316.594 73.1912 320.991 71.2095 320.991 68.8647V45C320.991 20.1472 300.844 0 275.991 0H166.44C163.476 0 160.31 7.00877 160.31 9.9726V27.0613C160.31 33.1364 155.385 38.0613 149.31 38.0613L74.9506 38.0613ZM202.773 81.5583C202.773 69.9603 193.371 60.5583 181.773 60.5583H150.361C138.763 60.5583 129.361 69.9603 129.361 81.5583V115.356C129.361 126.954 138.763 136.356 150.361 136.356H181.773C193.371 136.356 202.773 126.954 202.773 115.356V81.5583ZM77.413 60.5583C89.011 60.5583 98.413 69.9603 98.413 81.5583V115.356C98.413 126.954 89.011 136.356 77.413 136.356H45.2812C33.6833 136.356 24.2812 126.954 24.2812 115.356V81.5583C24.2812 69.9603 33.6833 60.5583 45.2812 60.5583H77.413Z" fill="#270B5D"/>
</svg>
