<svg width="65" height="45" viewBox="0 0 65 45" fill="none" xmlns="http://www.w3.org/2000/svg">
<path fill-rule="evenodd" clip-rule="evenodd" d="M57.2824 1.37647C60.0353 2.11765 62.2059 4.28824 62.9471 7.04118C64.3235 12.0706 64.2706 22.5529 64.2706 22.5529C64.2706 22.5529 64.2706 32.9824 62.9471 38.0118C62.2059 40.7647 60.0353 42.9353 57.2824 43.6765C52.2529 45 32.1353 45 32.1353 45C32.1353 45 12.0706 45 6.98824 43.6235C4.23529 42.8824 2.06471 40.7118 1.32353 37.9588C0 32.9824 0 22.5 0 22.5C0 22.5 0 12.0706 1.32353 7.04118C2.06471 4.28824 4.28824 2.06471 6.98824 1.32353C12.0176 0 32.1353 0 32.1353 0C32.1353 0 52.2529 0 57.2824 1.37647ZM42.4584 22.1329L25.729 31.7682V12.4976L42.4584 22.1329Z" fill="#D1CCB6"/>
</svg>
